# xmcd
#
# Track frame offsets:
#	150
#	17469
#	32166
#	46455
#	64703
#	79994
#	94648
#	110984
#	125509
#
# Disc length: 1872 seconds
#
# Revision: 1
# Processed by: cddbd v1.5.2PL0 Copyright (c) Steve Scherf et al.
# Submitted via: audiograbber 1.83.01
#
DISCID=74074e09
DTITLE=Various Artist - CDX Volume 577 (August 19, 2013)
DYEAR=2013
DGENRE=Country
TTITLE0=Vince Gill and Paul Franklin - Branded Man
TTITLE1=Jake Owen - Days of Gold [Single Edit]
TTITLE2=American Young - Love Is War
TTITLE3=Jennifer Nettles - That Girl
TTITLE4=Vince Gill and Paul Franklin - The Bottle Let Me Down 
TTITLE5=Derek Anthony - Cowboy Way
TTITLE6=Ryan Broshear - Make Each Moment Last
TTITLE7=Jamie Stever - Make My Day
TTITLE8=Kinsey Sadler - The Young And The Reckless   
EXTD=
EXTT0=
EXTT1=
EXTT2=
EXTT3=
EXTT4=
EXTT5=
EXTT6=
EXTT7=
EXTT8=
PLAYORDER=
